<svg id="Layer_1" enable-background="new 0 0 69 69" viewBox="0 0 69 69" xmlns="http://www.w3.org/2000/svg"><g><circle cx="34.5" cy="34.5" fill="#50b456" r="31.8"/><path d="m34.5 68.8c-18.9 0-34.3-15.4-34.3-34.3s15.4-34.3 34.3-34.3 34.3 15.4 34.3 34.3-15.4 34.3-34.3 34.3zm0-63.6c-16.2 0-29.3 13.1-29.3 29.3s13.1 29.3 29.3 29.3 29.3-13.1 29.3-29.3-13.1-29.3-29.3-29.3z" fill="#0f883b"/></g><g fill="#fff"><path d="m32.5 51.3c-1.1 0-2.2-.4-3-1.2l-10.6-9.7c-1.8-1.7-2-4.5-.3-6.4 1.7-1.8 4.5-2 6.4-.3l10.6 9.7c1.8 1.7 2 4.5.3 6.4-1 1-2.2 1.5-3.4 1.5z"/><path d="m32.5 51.3c-.9 0-1.8-.3-2.5-.8-2.1-1.4-2.6-4.2-1.2-6.3l16.3-24c1.4-2.1 4.2-2.6 6.3-1.2s2.6 4.2 1.2 6.3l-16.3 24c-1 1.3-2.4 2-3.8 2z"/></g></svg>