<svg id="Image" enable-background="new 0 0 64 64" height="64" viewBox="0 0 64 64" width="64" xmlns="http://www.w3.org/2000/svg"><g><path d="m2 2h60v60h-60z" style="fill:none;stroke:#464747;stroke-linecap:round;stroke-linejoin:round;stroke-miterlimit:10;stroke-width:2"/><path d="m8 8h48v48h-48z" style="fill:none;stroke:#464747;stroke-linecap:round;stroke-linejoin:round;stroke-miterlimit:10;stroke-width:2"/><g fill="#464747"><path d="m8 50h6v6h-6z"/><path d="m20 50h6v6h-6z"/><path d="m32 50h6v6h-6z"/><path d="m44 50h6v6h-6z"/><path d="m14 44h6v6h-6z"/><path d="m26 44h6v6h-6z"/><path d="m38 44h6v6h-6z"/><path d="m50 44h6v6h-6z"/><path d="m20 38h6v6h-6z"/><path d="m32 38h6v6h-6z"/><path d="m44 38h6v6h-6z"/><path d="m8 38h6v6h-6z"/><path d="m26 32h6v6h-6z"/><path d="m38 32h6v6h-6z"/><path d="m50 32h6v6h-6z"/><path d="m14 32h6v6h-6z"/><path d="m32 26h6v6h-6z"/><path d="m20 26h6v6h-6z"/><path d="m8 26h6v6h-6z"/><path d="m44 26h6v6h-6z"/><path d="m38 20h6v6h-6z"/><path d="m26 20h6v6h-6z"/><path d="m14 20h6v6h-6z"/><path d="m50 20h6v6h-6z"/><path d="m44 14h6v6h-6z"/><path d="m32 14h6v6h-6z"/><path d="m20 14h6v6h-6z"/><path d="m8 14h6v6h-6z"/><path d="m50 8h6v6h-6z"/><path d="m38 8h6v6h-6z"/><path d="m26 8h6v6h-6z"/><path d="m14 8h6v6h-6z"/><circle cx="11" cy="5" r="1"/><circle cx="17" cy="5" r="1"/><circle cx="23" cy="5" r="1"/><circle cx="29" cy="5" r="1"/><circle cx="35" cy="5" r="1"/><circle cx="41" cy="5" r="1"/><circle cx="47" cy="5" r="1"/><circle cx="53" cy="5" r="1"/><circle cx="11" cy="59" r="1"/><circle cx="17" cy="59" r="1"/><circle cx="23" cy="59" r="1"/><circle cx="29" cy="59" r="1"/><circle cx="35" cy="59" r="1"/><circle cx="41" cy="59" r="1"/><circle cx="47" cy="59" r="1"/><circle cx="53" cy="59" r="1"/><circle cx="59" cy="11" r="1"/><circle cx="59" cy="17" r="1"/><circle cx="59" cy="23" r="1"/><circle cx="59" cy="29" r="1"/><circle cx="59" cy="35" r="1"/><circle cx="59" cy="41" r="1"/><circle cx="59" cy="47" r="1"/><circle cx="59" cy="53" r="1"/><circle cx="5" cy="11" r="1"/><circle cx="5" cy="17" r="1"/><circle cx="5" cy="23" r="1"/><circle cx="5" cy="29" r="1"/><circle cx="5" cy="35" r="1"/><circle cx="5" cy="41" r="1"/><circle cx="5" cy="47" r="1"/><circle cx="5" cy="53" r="1"/></g></g></svg>