<svg clip-rule="evenodd" fill-rule="evenodd" image-rendering="optimizeQuality" shape-rendering="geometricPrecision" text-rendering="geometricPrecision" viewBox="0 0 2.54 2.54" xmlns="http://www.w3.org/2000/svg"><g id="&#x56FE;&#x5C42;_x0020_1"><circle fill="#48b02c" r="1.252" transform="matrix(0 -1.015 1.015 0 1.27 1.27)"/><g id="_299932856" fill="#fff"><path id="_299933528" d="m.67274 1.14116h1.26586c.0373 0 .06773.03081.06773.06773v.12222c0 .03692-.03081.06773-.06773.06773h-1.26586c-.03692 0-.06773-.03043-.06773-.06773v-.12222c0-.0373.03043-.06773.06773-.06773z"/><g><path id="_299933336" d="m1.28068.84945-.54525.54525c-.02638.02637-.06973.02606-.09579 0l-.08642-.08642c-.02605-.02606-.02605-.06973 0-.09579l.54525-.54525c.02606-.02606.06941-.02637.09579 0l.08642.08642c.02637.02638.02637.06941 0 .09579z"/><path id="_299901224" d="m1.28068 1.69056-.54525-.54525c-.02638-.02637-.06973-.02606-.09579 0l-.08642.08642c-.02605.02606-.02605.06973 0 .09579l.54525.54525c.02606.02606.06941.02637.09579 0l.08642-.08642c.02637-.02638.02637-.06941 0-.09579z"/></g></g></g></svg>